<?xml version="1.0" standalone="no"?><!DOCTYPE svg PUBLIC "-//W3C//DTD SVG 1.1//EN" "http://www.w3.org/Graphics/SVG/1.1/DTD/svg11.dtd"><svg t="1491013972481" class="icon" style="" viewBox="0 0 1024 1024" version="1.1" xmlns="http://www.w3.org/2000/svg" p-id="9255" xmlns:xlink="http://www.w3.org/1999/xlink" width="200" height="200"><defs><style type="text/css"></style></defs><path d="M512.000512 64.708767c-247.143797 0-447.484637 200.255906-447.484637 447.304536 0 246.997464 200.340841 447.27793 447.484637 447.27793 247.14175 0 447.482591-200.280466 447.482591-447.27793C959.483102 264.964674 759.142262 64.708767 512.000512 64.708767zM508.186649 906.826324c-218.061434 0-394.839627-176.776146-394.839627-394.838603 0-218.061434 176.778192-394.839627 394.839627-394.839627 218.060411 0 394.838603 176.778192 394.838603 394.839627C903.025253 730.050178 726.24706 906.826324 508.186649 906.826324z" p-id="9256" fill="#04740f"></path><path d="M765.555321 367.076306 432.897919 704.059224c-6.435573 6.512321-14.917758 9.759271-23.332405 9.759271-8.42181 0-16.777105-3.246951-23.203468-9.759271L258.399653 574.494333c-12.853749-13.025665-12.853749-34.112935 0-47.136553 12.827143-13.014408 33.614585-13.014408 46.535873 0L409.565515 633.368208l309.522496-313.419246c12.852726-13.023618 33.67496-13.023618 46.467311 0C778.467399 332.964394 778.467399 354.051665 765.555321 367.076306L765.555321 367.076306z" p-id="9257" fill="#04740f"></path></svg>